<svg xmlns="http://www.w3.org/2000/svg" xmlns:xlink="http://www.w3.org/1999/xlink" width="500" zoomAndPan="magnify" viewBox="0 0 375 374.999991" height="500" preserveAspectRatio="xMidYMid meet" version="1.0"><defs><clipPath id="a2a397bf2d"><path d="M 46.703125 0 L 327.953125 0 L 327.953125 375 L 46.703125 375 Z M 46.703125 0 " clip-rule="nonzero"/></clipPath></defs><path fill="#ffffff" d="M 168.226562 57 C 171.769531 57 174.660156 59.886719 174.660156 63.433594 C 174.660156 66.425781 177.085938 68.847656 180.074219 68.847656 C 183.0625 68.847656 185.488281 66.425781 185.488281 63.433594 C 185.488281 55.816406 180.496094 49.414062 173.640625 47.125 L 173.640625 41.53125 C 173.640625 38.539062 171.214844 36.117188 168.226562 36.117188 C 165.234375 36.117188 162.808594 38.539062 162.808594 41.53125 L 162.808594 47.125 C 155.953125 49.410156 150.960938 55.816406 150.960938 63.433594 C 150.960938 72.953125 158.707031 80.699219 168.226562 80.699219 C 168.429688 80.699219 168.628906 80.6875 168.828125 80.664062 C 172.089844 80.96875 174.660156 83.726562 174.660156 87.070312 C 174.660156 90.617188 171.769531 93.503906 168.226562 93.503906 C 164.679688 93.503906 161.792969 90.617188 161.792969 87.070312 C 161.792969 84.078125 159.367188 81.65625 156.375 81.65625 C 153.386719 81.65625 150.960938 84.078125 150.960938 87.070312 C 150.960938 94.6875 155.953125 101.089844 162.808594 103.378906 L 162.808594 107.058594 C 162.808594 110.050781 165.234375 112.472656 168.226562 112.472656 C 171.214844 112.472656 173.640625 110.050781 173.640625 107.058594 L 173.640625 103.378906 C 180.496094 101.09375 185.488281 94.6875 185.488281 87.070312 C 185.488281 77.550781 177.742188 69.804688 168.226562 69.804688 C 168.019531 69.804688 167.820312 69.816406 167.621094 69.839844 C 164.359375 69.535156 161.792969 66.777344 161.792969 63.433594 C 161.792969 59.886719 164.679688 57 168.226562 57 Z M 168.226562 57 " fill-opacity="1" fill-rule="nonzero"/><g clip-path="url(#a2a397bf2d)"><path fill="#ffffff" d="M 311.972656 156.496094 L 284.367188 156.496094 L 284.367188 141.902344 C 284.367188 132.949219 277.078125 125.660156 268.121094 125.660156 L 221.574219 125.660156 C 234.738281 111.988281 242.3125 93.671875 242.3125 74.292969 C 242.3125 33.4375 209.078125 0.195312 168.226562 0.195312 C 127.371094 0.195312 94.128906 33.4375 94.128906 74.292969 C 94.128906 93.652344 101.703125 111.980469 114.871094 125.660156 L 63.027344 125.660156 C 54.070312 125.660156 46.78125 132.949219 46.78125 141.902344 L 46.78125 327.710938 C 46.78125 330.527344 47.5625 333.136719 48.832031 335.449219 C 48.21875 336.328125 47.851562 337.390625 47.851562 338.539062 L 47.851562 358.550781 C 47.851562 367.507812 55.140625 374.796875 64.097656 374.796875 L 311.976562 374.796875 C 320.933594 374.796875 328.222656 367.507812 328.222656 358.550781 L 328.222656 172.738281 C 328.21875 163.785156 320.933594 156.496094 311.972656 156.496094 Z M 273.535156 256.609375 L 212.804688 256.609375 C 200.789062 256.609375 191.007812 246.828125 191.007812 234.808594 C 191.007812 222.789062 200.789062 213.011719 212.804688 213.011719 L 273.535156 213.011719 Z M 104.957031 74.296875 C 104.957031 39.414062 133.339844 11.03125 168.226562 11.03125 C 203.105469 11.03125 231.480469 39.414062 231.480469 74.296875 C 231.480469 94.714844 221.640625 113.765625 205.097656 125.664062 L 188.316406 125.664062 C 208.839844 117.605469 223.425781 97.644531 223.425781 74.296875 C 223.425781 43.855469 198.664062 19.089844 168.226562 19.089844 C 137.785156 19.089844 113.019531 43.855469 113.019531 74.296875 C 113.019531 97.644531 127.609375 117.605469 148.132812 125.664062 L 131.335938 125.664062 C 114.796875 113.761719 104.957031 94.699219 104.957031 74.296875 Z M 168.226562 118.671875 C 143.757812 118.671875 123.847656 98.765625 123.847656 74.296875 C 123.847656 49.828125 143.757812 29.921875 168.226562 29.921875 C 192.691406 29.921875 212.597656 49.828125 212.597656 74.296875 C 212.597656 98.765625 192.691406 118.671875 168.226562 118.671875 Z M 63.027344 136.492188 L 129.546875 136.492188 C 129.550781 136.492188 129.550781 136.492188 129.554688 136.492188 L 205.292969 136.492188 C 205.726562 136.601562 206.171875 136.664062 206.617188 136.664062 C 207.003906 136.664062 207.390625 136.578125 207.769531 136.492188 L 268.121094 136.492188 C 271.105469 136.492188 273.535156 138.921875 273.535156 141.90625 L 273.535156 202.183594 L 212.804688 202.183594 C 194.816406 202.183594 180.179688 216.816406 180.179688 234.808594 C 180.179688 252.800781 194.816406 267.4375 212.804688 267.4375 L 273.535156 267.4375 L 273.535156 327.714844 C 273.535156 330.699219 271.105469 333.128906 268.121094 333.128906 L 63.027344 333.128906 C 60.039062 333.128906 57.609375 330.699219 57.609375 327.714844 L 57.609375 167.328125 L 249.644531 167.328125 C 252.632812 167.328125 255.058594 164.902344 255.058594 161.910156 C 255.058594 158.917969 252.632812 156.496094 249.644531 156.496094 L 57.609375 156.496094 L 57.609375 141.902344 C 57.609375 138.917969 60.035156 136.492188 63.027344 136.492188 Z M 317.386719 358.554688 C 317.386719 361.539062 314.957031 363.96875 311.972656 363.96875 L 64.09375 363.96875 C 61.109375 363.96875 58.679688 361.539062 58.679688 358.554688 L 58.679688 343.292969 C 60.074219 343.679688 61.507812 343.957031 63.023438 343.957031 L 268.121094 343.957031 C 277.078125 343.957031 284.367188 336.667969 284.367188 327.710938 L 284.367188 167.328125 L 311.972656 167.328125 C 314.957031 167.328125 317.386719 169.757812 317.386719 172.742188 Z M 317.386719 358.554688 " fill-opacity="1" fill-rule="nonzero"/></g><path fill="#ffffff" d="M 208.757812 234.808594 C 208.757812 237.800781 211.183594 240.222656 214.175781 240.222656 L 232.277344 240.222656 C 235.265625 240.222656 237.691406 237.800781 237.691406 234.808594 C 237.691406 231.8125 235.265625 229.390625 232.277344 229.390625 L 214.175781 229.390625 C 211.183594 229.390625 208.757812 231.8125 208.757812 234.808594 Z M 208.757812 234.808594 " fill-opacity="1" fill-rule="nonzero"/></svg>