<svg xmlns="http://www.w3.org/2000/svg" xmlns:xlink="http://www.w3.org/1999/xlink" width="500" zoomAndPan="magnify" viewBox="0 0 375 374.999991" height="500" preserveAspectRatio="xMidYMid meet" version="1.0"><defs><clipPath id="9230cf81ce"><path d="M 58.320312 0 L 337.320312 0 L 337.320312 372 L 58.320312 372 Z M 58.320312 0 " clip-rule="nonzero"/></clipPath></defs><path fill="#000000" d="M 178.722656 56.542969 C 182.234375 56.542969 185.097656 59.402344 185.097656 62.925781 C 185.097656 65.894531 187.5 68.296875 190.460938 68.296875 C 193.425781 68.296875 195.828125 65.894531 195.828125 62.925781 C 195.828125 55.367188 190.882812 49.015625 184.089844 46.742188 L 184.089844 41.195312 C 184.089844 38.226562 181.683594 35.824219 178.722656 35.824219 C 175.761719 35.824219 173.359375 38.226562 173.359375 41.195312 L 173.359375 46.742188 C 166.566406 49.011719 161.617188 55.367188 161.617188 62.925781 C 161.617188 72.367188 169.292969 80.050781 178.722656 80.050781 C 178.925781 80.050781 179.125 80.039062 179.320312 80.019531 C 182.554688 80.320312 185.097656 83.054688 185.097656 86.371094 C 185.097656 89.890625 182.234375 92.753906 178.722656 92.753906 C 175.210938 92.753906 172.347656 89.890625 172.347656 86.371094 C 172.347656 83.402344 169.945312 81 166.984375 81 C 164.023438 81 161.617188 83.402344 161.617188 86.371094 C 161.617188 93.929688 166.566406 100.28125 173.359375 102.550781 L 173.359375 106.199219 C 173.359375 109.171875 175.761719 111.574219 178.722656 111.574219 C 181.683594 111.574219 184.089844 109.171875 184.089844 106.199219 L 184.089844 102.550781 C 190.882812 100.285156 195.828125 93.929688 195.828125 86.371094 C 195.828125 76.925781 188.152344 69.246094 178.722656 69.246094 C 178.519531 69.246094 178.324219 69.257812 178.125 69.277344 C 174.890625 68.976562 172.347656 66.242188 172.347656 62.925781 C 172.347656 59.402344 175.210938 56.542969 178.722656 56.542969 Z M 178.722656 56.542969 " fill-opacity="1" fill-rule="nonzero"/><g clip-path="url(#9230cf81ce)"><path fill="#000000" d="M 321.148438 155.242188 L 293.796875 155.242188 L 293.796875 140.769531 C 293.796875 131.882812 286.574219 124.652344 277.699219 124.652344 L 231.582031 124.652344 C 244.625 111.089844 252.128906 92.921875 252.128906 73.695312 C 252.128906 33.167969 219.199219 0.191406 178.722656 0.191406 C 138.242188 0.191406 105.308594 33.167969 105.308594 73.695312 C 105.308594 92.898438 112.816406 111.082031 125.859375 124.652344 L 74.492188 124.652344 C 65.617188 124.652344 58.394531 131.882812 58.394531 140.769531 L 58.394531 325.089844 C 58.394531 327.882812 59.171875 330.472656 60.425781 332.769531 C 59.820312 333.640625 59.457031 334.691406 59.457031 335.835938 L 59.457031 355.6875 C 59.457031 364.570312 66.679688 371.800781 75.554688 371.800781 L 321.152344 371.800781 C 330.027344 371.800781 337.25 364.570312 337.25 355.6875 L 337.25 171.355469 C 337.246094 162.472656 330.027344 155.242188 321.148438 155.242188 Z M 283.066406 254.558594 L 222.894531 254.558594 C 210.988281 254.558594 201.296875 244.855469 201.296875 232.929688 C 201.296875 221.007812 210.988281 211.308594 222.894531 211.308594 L 283.066406 211.308594 Z M 116.039062 73.699219 C 116.039062 39.09375 144.160156 10.9375 178.722656 10.9375 C 213.285156 10.9375 241.398438 39.09375 241.398438 73.699219 C 241.398438 93.957031 231.648438 112.855469 215.257812 124.65625 L 198.628906 124.65625 C 218.964844 116.660156 233.417969 96.859375 233.417969 73.699219 C 233.417969 43.503906 208.882812 18.933594 178.722656 18.933594 C 148.5625 18.933594 124.023438 43.503906 124.023438 73.699219 C 124.023438 96.859375 138.484375 116.660156 158.816406 124.65625 L 142.175781 124.65625 C 125.789062 112.851562 116.039062 93.9375 116.039062 73.699219 Z M 178.722656 117.722656 C 154.480469 117.722656 134.753906 97.976562 134.753906 73.699219 C 134.753906 49.425781 154.480469 29.679688 178.722656 29.679688 C 202.964844 29.679688 222.6875 49.425781 222.6875 73.699219 C 222.6875 97.976562 202.964844 117.722656 178.722656 117.722656 Z M 74.492188 135.398438 L 140.398438 135.398438 C 140.402344 135.398438 140.402344 135.398438 140.40625 135.398438 L 215.449219 135.398438 C 215.878906 135.507812 216.320312 135.566406 216.765625 135.566406 C 217.148438 135.566406 217.527344 135.484375 217.90625 135.398438 L 277.699219 135.398438 C 280.660156 135.398438 283.066406 137.808594 283.066406 140.773438 L 283.066406 200.566406 L 222.894531 200.566406 C 205.070312 200.566406 190.566406 215.082031 190.566406 232.929688 C 190.566406 250.777344 205.070312 265.300781 222.894531 265.300781 L 283.066406 265.300781 L 283.066406 325.09375 C 283.066406 328.058594 280.660156 330.46875 277.699219 330.46875 L 74.492188 330.46875 C 71.535156 330.46875 69.125 328.058594 69.125 325.09375 L 69.125 165.988281 L 259.394531 165.988281 C 262.355469 165.988281 264.757812 163.585938 264.757812 160.617188 C 264.757812 157.648438 262.355469 155.242188 259.394531 155.242188 L 69.125 155.242188 L 69.125 140.769531 C 69.125 137.804688 71.53125 135.398438 74.492188 135.398438 Z M 326.515625 355.691406 C 326.515625 358.652344 324.105469 361.0625 321.148438 361.0625 L 75.550781 361.0625 C 72.59375 361.0625 70.183594 358.652344 70.183594 355.691406 L 70.183594 340.546875 C 71.566406 340.933594 72.984375 341.207031 74.488281 341.207031 L 277.699219 341.207031 C 286.574219 341.207031 293.796875 333.976562 293.796875 325.089844 L 293.796875 165.988281 L 321.148438 165.988281 C 324.105469 165.988281 326.515625 168.398438 326.515625 171.359375 Z M 326.515625 355.691406 " fill-opacity="1" fill-rule="nonzero"/></g><path fill="#000000" d="M 218.886719 232.929688 C 218.886719 235.898438 221.289062 238.300781 224.25 238.300781 L 242.183594 238.300781 C 245.148438 238.300781 247.550781 235.898438 247.550781 232.929688 C 247.550781 229.960938 245.148438 227.558594 242.183594 227.558594 L 224.25 227.558594 C 221.289062 227.558594 218.886719 229.960938 218.886719 232.929688 Z M 218.886719 232.929688 " fill-opacity="1" fill-rule="nonzero"/></svg>