<svg xmlns="http://www.w3.org/2000/svg" xmlns:xlink="http://www.w3.org/1999/xlink" width="500" zoomAndPan="magnify" viewBox="0 0 375 374.999991" height="500" preserveAspectRatio="xMidYMid meet" version="1.0"><path fill="#ffffff" d="M 182.140625 217.886719 L 197.90625 216.804688 C 198.355469 216.777344 198.789062 216.761719 199.226562 216.761719 C 201.738281 216.761719 204.171875 217.238281 206.429688 218.128906 C 206.8125 208.171875 207.015625 197.957031 207.015625 187.535156 L 203.578125 185.082031 Z M 182.140625 217.886719 " fill-opacity="1" fill-rule="nonzero"/><path fill="#ffffff" d="M 164.335938 258.203125 L 164.335938 253.316406 L 191.695312 251.445312 L 235.515625 318.359375 C 238.324219 322.648438 243 324.976562 247.765625 324.976562 C 250.515625 324.976562 253.296875 324.203125 255.765625 322.582031 C 262.527344 318.15625 264.417969 309.089844 259.992188 302.332031 L 211.476562 228.25 C 208.578125 223.824219 203.519531 221.316406 198.238281 221.671875 L 172.699219 223.417969 L 202.273438 178.160156 L 233.027344 200.117188 C 234.71875 201.324219 236.707031 201.929688 238.695312 201.929688 C 240.496094 201.929688 242.296875 201.433594 243.890625 200.433594 L 296.027344 167.621094 C 300.585938 164.75 301.957031 158.730469 299.085938 154.171875 C 296.21875 149.613281 290.195312 148.242188 285.640625 151.113281 L 239.035156 180.441406 L 206.597656 157.28125 C 205.992188 156.722656 205.3125 156.226562 204.542969 155.828125 L 164.335938 134.972656 L 164.335938 129.480469 L 181.175781 138.214844 C 174.769531 128.71875 173.613281 116.097656 179.246094 105.234375 C 183.640625 96.761719 191.40625 90.832031 200.429688 88.695312 C 192.6875 35.464844 178.878906 0.015625 163.128906 0.015625 C 138.894531 0.015625 119.246094 83.949219 119.246094 187.488281 C 119.246094 291.027344 138.894531 374.960938 163.128906 374.960938 C 179.886719 374.960938 194.449219 334.828125 201.84375 275.839844 L 189.179688 256.503906 Z M 166.652344 69.65625 L 166.652344 120.253906 L 162.996094 120.253906 L 162.996094 69.65625 Z M 147.328125 266.132812 L 143.671875 266.132812 L 143.671875 120.65625 L 147.328125 120.65625 Z M 153.332031 279.148438 L 153.332031 102.804688 L 156.988281 102.804688 L 156.988281 279.148438 Z M 166.652344 322.230469 L 162.996094 322.230469 L 162.996094 267.609375 L 166.652344 267.609375 Z M 166.652344 322.230469 " fill-opacity="1" fill-rule="nonzero"/><path fill="#ffffff" d="M 195.292969 144.457031 C 208.742188 151.433594 225.292969 146.1875 232.269531 132.738281 C 239.246094 119.292969 234 102.738281 220.550781 95.761719 C 207.105469 88.789062 190.550781 94.03125 183.574219 107.480469 C 176.601562 120.925781 181.847656 137.480469 195.292969 144.457031 Z M 195.292969 144.457031 " fill-opacity="1" fill-rule="nonzero"/></svg>