<svg xmlns="http://www.w3.org/2000/svg" xmlns:xlink="http://www.w3.org/1999/xlink" width="500" zoomAndPan="magnify" viewBox="0 0 375 374.999991" height="500" preserveAspectRatio="xMidYMid meet" version="1.0"><defs><clipPath id="c3b8402e02"><path d="M 46.167969 0 L 253 0 L 253 375 L 46.167969 375 Z M 46.167969 0 " clip-rule="nonzero"/></clipPath></defs><g clip-path="url(#c3b8402e02)"><path fill="#ffffff" d="M 192.011719 127.625 C 194.015625 127.625 195.960938 128.03125 197.804688 128.828125 C 197.953125 128.875 198.101562 128.933594 198.25 128.984375 L 198.25 134.277344 L 197.992188 134.144531 C 197.382812 133.828125 196.757812 133.589844 196.121094 133.417969 C 194.214844 132.53125 192.011719 132.242188 189.800781 132.757812 L 135.449219 145.441406 C 133.347656 145.929688 131.464844 147.105469 130.105469 148.777344 L 96.484375 190.046875 C 95.890625 190.773438 95.429688 191.5625 95.078125 192.386719 L 86.710938 187.773438 L 81.023438 198.089844 L 69.902344 191.960938 L 46.167969 235.019531 L 101.5 265.523438 L 125.238281 222.464844 L 114.117188 216.335938 L 119.804688 206.015625 L 112.09375 201.765625 L 143.121094 163.679688 L 173.207031 156.65625 L 140.058594 207.378906 C 137.671875 210.386719 136.453125 214.316406 137.003906 218.425781 L 144.574219 274.601562 L 77.820312 307.273438 C 70.566406 310.824219 67.5625 319.585938 71.113281 326.839844 C 73.652344 332.027344 78.851562 335.042969 84.261719 335.042969 C 86.421875 335.042969 88.613281 334.5625 90.683594 333.550781 L 166.910156 296.242188 C 172.566406 293.472656 175.816406 287.390625 174.976562 281.148438 L 170.753906 249.808594 C 173.65625 252.949219 177.898438 254.800781 182.496094 254.484375 L 198.25 253.40625 L 198.25 258.296875 L 182.828125 259.351562 C 182.378906 259.382812 181.929688 259.394531 181.484375 259.394531 C 179.925781 259.394531 178.382812 259.207031 176.890625 258.839844 L 179.808594 280.496094 C 180.722656 287.296875 178.015625 293.925781 172.890625 298.148438 C 180.875 344.714844 193.765625 374.960938 208.316406 374.960938 C 232.550781 374.960938 252.199219 291.027344 252.199219 187.488281 C 252.199219 83.949219 232.550781 0.015625 208.316406 0.015625 C 188.496094 0.015625 171.746094 56.152344 166.300781 133.234375 L 188.695312 128.007812 C 189.78125 127.753906 190.898438 127.625 192.011719 127.625 Z M 112.351562 208.171875 L 109.3125 213.6875 L 85.824219 200.738281 L 88.867188 195.222656 L 94.542969 198.351562 C 95.003906 200.40625 96.125 202.332031 97.886719 203.765625 C 99.695312 205.238281 101.875 205.957031 104.039062 205.957031 C 105.152344 205.957031 106.253906 205.761719 107.308594 205.390625 Z M 197.074219 325.179688 L 193.417969 325.179688 L 193.417969 267.609375 L 197.074219 267.609375 Z M 216.402344 267.207031 L 212.742188 267.207031 L 212.742188 121.726562 L 216.402344 121.726562 Z M 206.738281 108.710938 L 206.738281 293.777344 L 203.082031 293.777344 L 203.082031 108.710938 Z M 193.417969 81.800781 L 197.074219 81.800781 L 197.074219 120.253906 L 193.417969 120.253906 Z M 193.417969 81.800781 " fill-opacity="1" fill-rule="nonzero"/></g></svg>