<svg xmlns="http://www.w3.org/2000/svg" xmlns:xlink="http://www.w3.org/1999/xlink" width="500" zoomAndPan="magnify" viewBox="0 0 375 374.999991" height="500" preserveAspectRatio="xMidYMid meet" version="1.0"><path fill="#000000" d="M 182.167969 217.886719 L 197.933594 216.804688 C 198.382812 216.777344 198.816406 216.761719 199.253906 216.761719 C 201.765625 216.761719 204.199219 217.238281 206.457031 218.128906 C 206.839844 208.171875 207.042969 197.957031 207.042969 187.535156 L 203.605469 185.082031 Z M 182.167969 217.886719 " fill-opacity="1" fill-rule="nonzero"/><path fill="#000000" d="M 164.363281 258.203125 L 164.363281 253.316406 L 191.722656 251.445312 L 235.546875 318.359375 C 238.355469 322.648438 243.03125 324.976562 247.796875 324.976562 C 250.546875 324.976562 253.328125 324.203125 255.800781 322.582031 C 262.558594 318.15625 264.449219 309.089844 260.023438 302.332031 L 211.503906 228.25 C 208.605469 223.824219 203.546875 221.316406 198.269531 221.671875 L 172.726562 223.417969 L 202.300781 178.160156 L 233.058594 200.117188 C 234.75 201.324219 236.734375 201.929688 238.726562 201.929688 C 240.527344 201.929688 242.328125 201.433594 243.917969 200.433594 L 296.0625 167.621094 C 300.621094 164.75 301.992188 158.730469 299.121094 154.171875 C 296.253906 149.613281 290.230469 148.242188 285.671875 151.113281 L 239.066406 180.441406 L 206.625 157.28125 C 206.019531 156.722656 205.339844 156.226562 204.574219 155.828125 L 164.363281 134.972656 L 164.363281 129.480469 L 181.203125 138.214844 C 174.796875 128.71875 173.636719 116.097656 179.273438 105.234375 C 183.667969 96.761719 191.433594 90.832031 200.457031 88.695312 C 192.714844 35.464844 178.90625 0.015625 163.15625 0.015625 C 138.917969 0.015625 119.265625 83.949219 119.265625 187.488281 C 119.265625 291.027344 138.917969 374.960938 163.15625 374.960938 C 179.914062 374.960938 194.476562 334.828125 201.871094 275.839844 L 189.207031 256.503906 Z M 166.679688 69.65625 L 166.679688 120.253906 L 163.019531 120.253906 L 163.019531 69.65625 Z M 147.351562 266.132812 L 143.695312 266.132812 L 143.695312 120.65625 L 147.351562 120.65625 Z M 153.355469 279.148438 L 153.355469 102.804688 L 157.015625 102.804688 L 157.015625 279.148438 Z M 166.679688 322.230469 L 163.019531 322.230469 L 163.019531 267.609375 L 166.679688 267.609375 Z M 166.679688 322.230469 " fill-opacity="1" fill-rule="nonzero"/><path fill="#000000" d="M 195.320312 144.457031 C 208.769531 151.433594 225.324219 146.1875 232.300781 132.738281 C 239.277344 119.292969 234.03125 102.738281 220.582031 95.761719 C 207.132812 88.789062 190.578125 94.03125 183.601562 107.480469 C 176.625 120.925781 181.875 137.480469 195.320312 144.457031 Z M 195.320312 144.457031 " fill-opacity="1" fill-rule="nonzero"/></svg>