<svg xmlns="http://www.w3.org/2000/svg" xmlns:xlink="http://www.w3.org/1999/xlink" width="500" zoomAndPan="magnify" viewBox="0 0 375 374.999991" height="500" preserveAspectRatio="xMidYMid meet" version="1.0"><defs><clipPath id="af0dbf141b"><path d="M 46.167969 0 L 253 0 L 253 375 L 46.167969 375 Z M 46.167969 0 " clip-rule="nonzero"/></clipPath></defs><g clip-path="url(#af0dbf141b)"><path fill="#000000" d="M 192.023438 127.625 C 194.023438 127.625 195.972656 128.03125 197.8125 128.828125 C 197.964844 128.875 198.109375 128.933594 198.261719 128.984375 L 198.261719 134.277344 L 198.003906 134.144531 C 197.394531 133.828125 196.769531 133.589844 196.132812 133.417969 C 194.226562 132.53125 192.019531 132.242188 189.8125 132.757812 L 135.457031 145.441406 C 133.351562 145.929688 131.472656 147.105469 130.109375 148.777344 L 96.488281 190.046875 C 95.894531 190.773438 95.433594 191.5625 95.082031 192.386719 L 86.714844 187.773438 L 81.023438 198.089844 L 69.902344 191.960938 L 46.167969 235.019531 L 101.503906 265.523438 L 125.242188 222.464844 L 114.121094 216.335938 L 119.808594 206.015625 L 112.097656 201.765625 L 143.128906 163.679688 L 173.214844 156.65625 L 140.066406 207.378906 C 137.675781 210.386719 136.457031 214.316406 137.011719 218.425781 L 144.582031 274.601562 L 77.824219 307.273438 C 70.566406 310.824219 67.5625 319.585938 71.113281 326.839844 C 73.652344 332.027344 78.855469 335.042969 84.265625 335.042969 C 86.421875 335.042969 88.617188 334.5625 90.683594 333.550781 L 166.917969 296.242188 C 172.578125 293.472656 175.828125 287.390625 174.984375 281.148438 L 170.761719 249.808594 C 173.667969 252.949219 177.910156 254.800781 182.507812 254.484375 L 198.261719 253.40625 L 198.261719 258.296875 L 182.839844 259.351562 C 182.386719 259.382812 181.941406 259.394531 181.496094 259.394531 C 181.496094 259.394531 181.496094 259.394531 181.492188 259.394531 C 179.9375 259.394531 178.394531 259.207031 176.898438 258.839844 L 179.816406 280.496094 C 180.734375 287.296875 178.027344 293.925781 172.898438 298.148438 C 180.886719 344.714844 193.777344 374.960938 208.328125 374.960938 C 232.566406 374.960938 252.214844 291.027344 252.214844 187.488281 C 252.214844 83.949219 232.566406 0.015625 208.328125 0.015625 C 188.503906 0.015625 171.753906 56.152344 166.308594 133.234375 L 188.703125 128.007812 C 189.792969 127.753906 190.910156 127.625 192.023438 127.625 Z M 112.359375 208.171875 L 109.316406 213.6875 L 85.828125 200.738281 L 88.871094 195.222656 L 94.542969 198.351562 C 95.007812 200.40625 96.128906 202.332031 97.890625 203.765625 C 99.699219 205.238281 101.878906 205.957031 104.042969 205.957031 C 105.15625 205.957031 106.261719 205.761719 107.3125 205.390625 Z M 197.085938 325.179688 L 193.429688 325.179688 L 193.429688 267.609375 L 197.085938 267.609375 Z M 216.414062 267.207031 L 212.753906 267.207031 L 212.753906 121.726562 L 216.414062 121.726562 Z M 206.75 108.710938 L 206.75 293.777344 L 203.09375 293.777344 L 203.09375 108.710938 Z M 193.429688 81.800781 L 197.085938 81.800781 L 197.085938 120.253906 L 193.429688 120.253906 Z M 193.429688 81.800781 " fill-opacity="1" fill-rule="nonzero"/></g></svg>