<svg xmlns="http://www.w3.org/2000/svg" xmlns:xlink="http://www.w3.org/1999/xlink" width="500" zoomAndPan="magnify" viewBox="0 0 375 374.999991" height="500" preserveAspectRatio="xMidYMid meet" version="1.0"><path fill="#000000" d="M 189.632812 290.851562 L 149.886719 262.90625 C 147.003906 260.894531 143.214844 260.617188 140.097656 262.234375 C 136.980469 263.855469 135.003906 267.089844 135.003906 270.644531 L 135.003906 287.0625 L 105.046875 287.0625 C 96.484375 287.0625 89.496094 280.117188 89.496094 271.511719 L 89.496094 194.347656 C 89.496094 187.992188 84.328125 182.824219 77.972656 182.824219 C 71.617188 182.824219 66.445312 187.992188 66.445312 194.347656 L 66.445312 271.550781 C 66.445312 292.824219 83.734375 310.113281 105.007812 310.113281 L 134.964844 310.113281 L 134.964844 326.570312 C 134.964844 330.125 136.941406 333.359375 140.058594 334.976562 C 141.4375 335.6875 142.9375 336.042969 144.398438 336.042969 C 146.292969 336.042969 148.226562 335.453125 149.847656 334.308594 L 189.59375 306.363281 C 192.117188 304.585938 193.617188 301.707031 193.617188 298.625 C 193.617188 295.507812 192.15625 292.628906 189.632812 290.851562 Z M 189.632812 290.851562 " fill-opacity="1" fill-rule="nonzero"/><path fill="#000000" d="M 185.367188 84.109375 L 225.113281 112.054688 C 226.734375 113.199219 228.628906 113.789062 230.5625 113.789062 C 232.0625 113.789062 233.5625 113.433594 234.902344 112.726562 C 238.019531 111.105469 239.996094 107.871094 239.996094 104.316406 L 239.996094 87.898438 L 269.992188 87.898438 C 278.554688 87.898438 285.542969 94.84375 285.542969 103.449219 L 285.542969 180.652344 C 285.542969 187.007812 290.710938 192.175781 297.066406 192.175781 C 303.421875 192.175781 308.59375 187.007812 308.59375 180.652344 L 308.59375 103.449219 C 308.59375 82.175781 291.304688 64.886719 270.03125 64.886719 L 240.074219 64.886719 L 240.074219 48.429688 C 240.074219 44.875 238.101562 41.640625 234.980469 40.023438 C 231.863281 38.402344 228.074219 38.640625 225.195312 40.691406 L 185.449219 68.636719 C 182.921875 70.414062 181.421875 73.296875 181.421875 76.375 C 181.421875 79.453125 182.84375 82.332031 185.367188 84.109375 Z M 185.367188 84.109375 " fill-opacity="1" fill-rule="nonzero"/><path fill="#000000" d="M 295.054688 215.148438 C 250.925781 215.148438 215.128906 250.949219 215.128906 295.074219 C 215.128906 339.199219 250.886719 375 295.054688 375 C 339.222656 375 374.980469 339.199219 374.980469 295.035156 C 374.980469 250.90625 339.222656 215.148438 295.054688 215.148438 Z M 303.34375 336.558594 L 303.34375 345.476562 C 303.34375 347.332031 301.84375 348.792969 300.027344 348.792969 L 290.121094 348.792969 C 288.304688 348.792969 286.804688 347.292969 286.804688 345.476562 L 286.804688 336.753906 C 276.542969 335.53125 268.53125 327.480469 267.503906 317.136719 C 267.425781 316.269531 267.703125 315.363281 268.332031 314.691406 C 268.964844 313.980469 269.871094 313.585938 270.859375 313.585938 L 280.886719 313.585938 C 282.464844 313.585938 283.765625 314.613281 284.082031 316.070312 C 284.632812 318.597656 286.882812 320.453125 289.488281 320.453125 L 298.289062 320.453125 C 302.949219 320.453125 306.972656 317.097656 307.410156 312.796875 C 307.644531 310.347656 306.894531 307.980469 305.238281 306.164062 C 303.621094 304.347656 301.289062 303.324219 298.882812 303.324219 L 291.304688 303.324219 C 284.238281 303.324219 277.492188 300.324219 272.714844 295.074219 C 267.898438 289.746094 265.609375 282.878906 266.320312 275.695312 C 267.386719 264.957031 275.714844 256.039062 286.804688 253.710938 L 286.804688 244.632812 C 286.804688 242.816406 288.265625 241.316406 290.121094 241.316406 L 300.066406 241.316406 C 301.882812 241.316406 303.382812 242.816406 303.382812 244.632812 L 303.382812 253.355469 C 313.605469 254.617188 321.65625 262.667969 322.683594 272.972656 C 322.761719 273.878906 322.445312 274.746094 321.855469 275.417969 C 321.222656 276.128906 320.316406 276.523438 319.367188 276.523438 L 309.34375 276.523438 C 307.804688 276.523438 306.460938 275.457031 306.144531 273.996094 C 305.59375 271.472656 303.34375 269.65625 300.738281 269.65625 L 291.9375 269.65625 C 287.277344 269.65625 283.253906 273.011719 282.820312 277.3125 C 282.582031 279.761719 283.332031 282.128906 284.988281 283.945312 C 286.609375 285.757812 288.9375 286.785156 291.34375 286.785156 L 297.816406 286.785156 C 311.199219 286.785156 322.605469 296.730469 323.867188 309.402344 C 325.089844 322.546875 316.171875 334.226562 303.34375 336.558594 Z M 303.34375 336.558594 " fill-opacity="1" fill-rule="nonzero"/><path fill="#000000" d="M 159.832031 79.925781 C 159.832031 35.757812 124.074219 0 79.945312 0 C 35.777344 0 0.0195312 35.757812 0.0195312 79.925781 C 0.0195312 124.050781 35.777344 159.851562 79.945312 159.851562 C 124.074219 159.8125 159.832031 124.050781 159.832031 79.925781 Z M 58.75 119.078125 C 54.09375 121.722656 48.488281 117.660156 49.554688 112.410156 L 54.015625 90.621094 C 54.289062 89.320312 53.855469 87.976562 52.871094 87.109375 L 36.449219 72.109375 C 32.503906 68.480469 34.632812 61.886719 39.964844 61.296875 L 62.066406 58.847656 C 63.367188 58.691406 64.511719 57.863281 65.066406 56.679688 L 74.261719 36.429688 C 76.472656 31.535156 83.378906 31.535156 85.589844 36.429688 L 94.785156 56.71875 C 95.339844 57.902344 96.484375 58.730469 97.785156 58.886719 L 119.890625 61.335938 C 125.21875 61.925781 127.347656 68.519531 123.402344 72.148438 L 106.980469 87.148438 C 105.996094 88.054688 105.5625 89.398438 105.835938 90.699219 L 110.296875 112.488281 C 111.363281 117.738281 105.757812 121.804688 101.101562 119.160156 L 81.761719 108.1875 C 80.617188 107.515625 79.195312 107.515625 78.050781 108.1875 Z M 58.75 119.078125 " fill-opacity="1" fill-rule="nonzero"/></svg>