<svg xmlns="http://www.w3.org/2000/svg" xmlns:xlink="http://www.w3.org/1999/xlink" width="500" zoomAndPan="magnify" viewBox="0 0 375 374.999991" height="500" preserveAspectRatio="xMidYMid meet" version="1.0"><defs><clipPath id="b2eeb77fc0"><path d="M 0 37.5 L 160 37.5 L 160 334.5 L 0 334.5 Z M 0 37.5 " clip-rule="nonzero"/></clipPath><clipPath id="afc005c165"><path d="M 230 37.5 L 374 37.5 L 374 334.5 L 230 334.5 Z M 230 37.5 " clip-rule="nonzero"/></clipPath></defs><g clip-path="url(#b2eeb77fc0)"><path fill="#ffffff" d="M 111.601562 138.566406 C 113.1875 138.566406 114.730469 138.886719 116.1875 139.515625 C 116.308594 139.554688 116.421875 139.601562 116.542969 139.640625 L 116.542969 143.832031 L 116.335938 143.726562 C 115.855469 143.476562 115.359375 143.289062 114.855469 143.152344 C 113.347656 142.449219 111.601562 142.21875 109.851562 142.628906 L 66.8125 152.671875 C 65.148438 153.058594 63.660156 153.988281 62.578125 155.3125 L 35.957031 187.992188 C 35.488281 188.570312 35.121094 189.195312 34.84375 189.84375 L 28.21875 186.191406 L 23.714844 194.363281 L 14.910156 189.507812 L -3.886719 223.605469 L 39.929688 247.761719 L 58.726562 213.664062 L 49.921875 208.808594 L 54.425781 200.636719 L 48.320312 197.273438 L 72.886719 167.113281 L 96.710938 161.554688 L 70.460938 201.71875 C 68.570312 204.097656 67.605469 207.210938 68.042969 210.464844 L 74.039062 254.949219 L 21.179688 280.820312 C 15.433594 283.632812 13.054688 290.570312 15.867188 296.316406 C 17.875 300.421875 21.996094 302.808594 26.277344 302.808594 C 27.988281 302.808594 29.722656 302.429688 31.363281 301.628906 L 91.726562 272.085938 C 96.207031 269.890625 98.777344 265.078125 98.113281 260.132812 L 94.769531 235.316406 C 97.066406 237.804688 100.425781 239.269531 104.066406 239.019531 L 116.542969 238.167969 L 116.542969 242.035156 L 104.332031 242.871094 C 103.972656 242.894531 103.621094 242.90625 103.265625 242.90625 C 102.03125 242.90625 100.8125 242.757812 99.628906 242.46875 L 101.9375 259.617188 C 102.664062 265.003906 100.519531 270.25 96.460938 273.59375 C 102.785156 310.46875 112.992188 334.421875 124.511719 334.421875 C 143.703125 334.421875 159.261719 267.957031 159.261719 185.96875 C 159.261719 103.980469 143.703125 37.515625 124.511719 37.515625 C 108.816406 37.515625 95.554688 81.96875 91.242188 143.007812 L 108.976562 138.867188 C 109.835938 138.667969 110.71875 138.566406 111.601562 138.566406 Z M 48.523438 202.34375 L 46.117188 206.714844 L 27.519531 196.460938 L 29.925781 192.09375 L 34.417969 194.570312 C 34.785156 196.199219 35.671875 197.722656 37.066406 198.855469 C 38.5 200.023438 40.226562 200.59375 41.941406 200.59375 C 42.820312 200.59375 43.695312 200.4375 44.527344 200.144531 Z M 115.613281 295 L 112.714844 295 L 112.714844 249.410156 L 115.613281 249.410156 Z M 130.914062 249.09375 L 128.019531 249.09375 L 128.019531 133.894531 L 130.914062 133.894531 Z M 123.261719 123.585938 L 123.261719 270.132812 L 120.367188 270.132812 L 120.367188 123.585938 Z M 112.714844 102.277344 L 115.613281 102.277344 L 115.613281 132.726562 L 112.714844 132.726562 Z M 112.714844 102.277344 " fill-opacity="1" fill-rule="nonzero"/></g><path fill="#ffffff" d="M 280.074219 210.039062 L 292.558594 209.183594 C 292.914062 209.160156 293.261719 209.148438 293.605469 209.148438 C 295.59375 209.148438 297.523438 209.527344 299.308594 210.230469 C 299.609375 202.347656 299.773438 194.257812 299.773438 186.003906 L 297.050781 184.0625 Z M 280.074219 210.039062 " fill-opacity="1" fill-rule="nonzero"/><g clip-path="url(#afc005c165)"><path fill="#ffffff" d="M 265.976562 241.964844 L 265.976562 238.09375 L 287.640625 236.609375 L 322.339844 289.597656 C 324.566406 292.996094 328.265625 294.839844 332.042969 294.839844 C 334.21875 294.839844 336.421875 294.226562 338.378906 292.945312 C 343.730469 289.4375 345.226562 282.257812 341.722656 276.90625 L 303.304688 218.246094 C 301.011719 214.742188 297.003906 212.753906 292.824219 213.035156 L 272.597656 214.417969 L 296.019531 178.582031 L 320.371094 195.96875 C 321.710938 196.921875 323.285156 197.402344 324.859375 197.402344 C 326.285156 197.402344 327.710938 197.011719 328.972656 196.21875 L 370.257812 170.234375 C 373.867188 167.960938 374.953125 163.195312 372.679688 159.585938 C 370.410156 155.976562 365.640625 154.890625 362.03125 157.164062 L 325.128906 180.386719 L 299.441406 162.046875 C 298.960938 161.605469 298.421875 161.214844 297.816406 160.898438 L 265.976562 144.382812 L 265.976562 140.03125 L 279.3125 146.949219 C 274.238281 139.429688 273.324219 129.4375 277.785156 120.832031 C 281.265625 114.125 287.414062 109.429688 294.558594 107.734375 C 288.425781 65.585938 277.492188 37.515625 265.023438 37.515625 C 245.828125 37.515625 230.269531 103.980469 230.269531 185.96875 C 230.269531 267.957031 245.828125 334.421875 265.023438 334.421875 C 278.292969 334.421875 289.824219 302.640625 295.675781 255.929688 L 285.648438 240.617188 Z M 267.8125 92.660156 L 267.8125 132.726562 L 264.914062 132.726562 L 264.914062 92.660156 Z M 252.507812 248.242188 L 249.613281 248.242188 L 249.613281 133.042969 L 252.507812 133.042969 Z M 257.265625 258.550781 L 257.265625 118.910156 L 260.160156 118.910156 L 260.160156 258.550781 Z M 267.8125 292.664062 L 264.914062 292.664062 L 264.914062 249.410156 L 267.8125 249.410156 Z M 267.8125 292.664062 " fill-opacity="1" fill-rule="nonzero"/></g><path fill="#ffffff" d="M 290.488281 151.890625 C 301.140625 157.417969 314.246094 153.261719 319.769531 142.613281 C 325.292969 131.964844 321.140625 118.855469 310.492188 113.332031 C 299.84375 107.808594 286.734375 111.964844 281.210938 122.613281 C 275.6875 133.261719 279.84375 146.371094 290.488281 151.890625 Z M 290.488281 151.890625 " fill-opacity="1" fill-rule="nonzero"/></svg>