<svg xmlns="http://www.w3.org/2000/svg" xmlns:xlink="http://www.w3.org/1999/xlink" width="500" zoomAndPan="magnify" viewBox="0 0 375 374.999991" height="500" preserveAspectRatio="xMidYMid meet" version="1.0"><defs><clipPath id="560c5b88ca"><path d="M 0 37.5 L 160 37.5 L 160 334.5 L 0 334.5 Z M 0 37.5 " clip-rule="nonzero"/></clipPath><clipPath id="5996cb7e8e"><path d="M 230 37.5 L 374 37.5 L 374 334.5 L 230 334.5 Z M 230 37.5 " clip-rule="nonzero"/></clipPath></defs><g clip-path="url(#560c5b88ca)"><path fill="#000000" d="M 111.5625 138.582031 C 113.148438 138.582031 114.6875 138.902344 116.144531 139.53125 C 116.265625 139.570312 116.378906 139.617188 116.5 139.65625 L 116.5 143.847656 L 116.296875 143.742188 C 115.8125 143.492188 115.316406 143.304688 114.816406 143.167969 C 113.304688 142.464844 111.5625 142.238281 109.8125 142.644531 L 66.785156 152.6875 C 65.121094 153.078125 63.632812 154.007812 62.554688 155.332031 L 35.945312 188.015625 C 35.472656 188.59375 35.109375 189.21875 34.832031 189.867188 L 28.207031 186.214844 L 23.703125 194.386719 L 14.902344 189.53125 L -3.890625 223.632812 L 39.914062 247.792969 L 58.703125 213.691406 L 49.902344 208.835938 L 54.402344 200.664062 L 48.300781 197.296875 L 72.859375 167.132812 L 96.675781 161.574219 L 70.4375 201.742188 C 68.546875 204.125 67.582031 207.238281 68.019531 210.492188 L 74.007812 254.980469 L 21.167969 280.859375 C 15.425781 283.671875 13.046875 290.609375 15.859375 296.355469 C 17.867188 300.464844 21.984375 302.851562 26.265625 302.851562 C 27.976562 302.851562 29.710938 302.472656 31.347656 301.667969 L 91.691406 272.121094 C 96.171875 269.929688 98.742188 265.113281 98.078125 260.167969 L 94.734375 235.347656 C 97.03125 237.835938 100.390625 239.300781 104.027344 239.050781 L 116.5 238.199219 L 116.5 242.070312 L 104.292969 242.90625 C 103.9375 242.929688 103.582031 242.941406 103.230469 242.941406 C 103.226562 242.941406 103.226562 242.941406 103.226562 242.941406 C 101.996094 242.941406 100.773438 242.789062 99.589844 242.5 L 101.902344 259.652344 C 102.625 265.039062 100.484375 270.289062 96.425781 273.632812 C 102.746094 310.511719 112.949219 334.46875 124.464844 334.46875 C 143.652344 334.46875 159.207031 267.992188 159.207031 185.992188 C 159.207031 103.988281 143.652344 37.515625 124.46875 37.515625 C 108.777344 37.515625 95.519531 81.972656 91.207031 143.023438 L 108.933594 138.882812 C 109.796875 138.683594 110.679688 138.582031 111.5625 138.582031 Z M 48.503906 202.371094 L 46.097656 206.738281 L 27.503906 196.484375 L 29.914062 192.117188 L 34.40625 194.59375 C 34.769531 196.222656 35.660156 197.746094 37.050781 198.882812 C 38.484375 200.050781 40.210938 200.617188 41.921875 200.617188 C 42.804688 200.617188 43.675781 200.464844 44.511719 200.167969 Z M 115.570312 295.042969 L 112.675781 295.042969 L 112.675781 249.445312 L 115.570312 249.445312 Z M 130.867188 249.125 L 127.972656 249.125 L 127.972656 133.910156 L 130.867188 133.910156 Z M 123.21875 123.597656 L 123.21875 270.171875 L 120.324219 270.171875 L 120.324219 123.597656 Z M 112.675781 102.289062 L 115.570312 102.289062 L 115.570312 132.742188 L 112.675781 132.742188 Z M 112.675781 102.289062 " fill-opacity="1" fill-rule="nonzero"/></g><path fill="#000000" d="M 279.976562 210.066406 L 292.457031 209.210938 C 292.8125 209.1875 293.15625 209.175781 293.503906 209.175781 C 295.488281 209.175781 297.417969 209.550781 299.203125 210.257812 C 299.507812 202.371094 299.667969 194.28125 299.667969 186.027344 L 296.945312 184.085938 Z M 279.976562 210.066406 " fill-opacity="1" fill-rule="nonzero"/><g clip-path="url(#5996cb7e8e)"><path fill="#000000" d="M 265.886719 241.996094 L 265.886719 238.125 L 287.539062 236.644531 L 322.230469 289.640625 C 324.453125 293.035156 328.152344 294.878906 331.925781 294.878906 C 334.101562 294.878906 336.304688 294.265625 338.261719 292.984375 C 343.609375 289.476562 345.105469 282.296875 341.605469 276.945312 L 303.199219 218.273438 C 300.90625 214.769531 296.902344 212.78125 292.722656 213.0625 L 272.503906 214.445312 L 295.914062 178.605469 L 320.261719 195.992188 C 321.597656 196.949219 323.171875 197.429688 324.746094 197.429688 C 326.171875 197.429688 327.597656 197.035156 328.855469 196.242188 L 370.128906 170.253906 C 373.738281 167.984375 374.824219 163.214844 372.550781 159.605469 C 370.28125 155.996094 365.515625 154.910156 361.90625 157.183594 L 325.015625 180.410156 L 299.339844 162.066406 C 298.859375 161.625 298.320312 161.234375 297.710938 160.917969 L 265.886719 144.398438 L 265.886719 140.050781 L 279.214844 146.964844 C 274.144531 139.445312 273.226562 129.449219 277.6875 120.847656 C 281.167969 114.136719 287.3125 109.441406 294.457031 107.746094 C 288.328125 65.589844 277.394531 37.515625 264.929688 37.515625 C 245.742188 37.515625 230.191406 103.988281 230.191406 185.992188 C 230.191406 267.992188 245.742188 334.46875 264.929688 334.46875 C 278.195312 334.46875 289.722656 302.683594 295.574219 255.964844 L 285.550781 240.648438 Z M 267.71875 92.667969 L 267.71875 132.742188 L 264.824219 132.742188 L 264.824219 92.667969 Z M 252.417969 248.273438 L 249.523438 248.273438 L 249.523438 133.058594 L 252.417969 133.058594 Z M 257.171875 258.585938 L 257.171875 118.921875 L 260.070312 118.921875 L 260.070312 258.585938 Z M 267.71875 292.703125 L 264.824219 292.703125 L 264.824219 249.445312 L 267.71875 249.445312 Z M 267.71875 292.703125 " fill-opacity="1" fill-rule="nonzero"/></g><path fill="#000000" d="M 290.390625 151.910156 C 301.035156 157.433594 314.136719 153.28125 319.660156 142.628906 C 325.179688 131.980469 321.027344 118.871094 310.382812 113.34375 C 299.738281 107.820312 286.632812 111.976562 281.113281 122.625 C 275.59375 133.273438 279.746094 146.386719 290.390625 151.910156 Z M 290.390625 151.910156 " fill-opacity="1" fill-rule="nonzero"/></svg>