<svg xmlns="http://www.w3.org/2000/svg" xmlns:xlink="http://www.w3.org/1999/xlink" width="500" zoomAndPan="magnify" viewBox="0 0 375 374.999991" height="500" preserveAspectRatio="xMidYMid meet" version="1.0"><defs><clipPath id="9430f3c079"><path d="M 112.5 193 L 132 193 L 132 229 L 112.5 229 Z M 112.5 193 " clip-rule="nonzero"/></clipPath><clipPath id="f06a0a3881"><path d="M 112.5 228 L 132 228 L 132 261 L 112.5 261 Z M 112.5 228 " clip-rule="nonzero"/></clipPath><clipPath id="979a9d95f9"><path d="M 241 144 L 262.5 144 L 262.5 180 L 241 180 Z M 241 144 " clip-rule="nonzero"/></clipPath><clipPath id="198cca62de"><path d="M 242 112.78125 L 262.5 112.78125 L 262.5 145 L 242 145 Z M 242 112.78125 " clip-rule="nonzero"/></clipPath><clipPath id="e4602ce7f2"><path d="M 182 112.78125 L 223 112.78125 L 223 144 L 182 144 Z M 182 112.78125 " clip-rule="nonzero"/></clipPath><clipPath id="781d9e62eb"><path d="M 112.5 124 L 133 124 L 133 159 L 112.5 159 Z M 112.5 124 " clip-rule="nonzero"/></clipPath><clipPath id="e71d42be33"><path d="M 123 112.78125 L 164 112.78125 L 164 143 L 123 143 Z M 123 112.78125 " clip-rule="nonzero"/></clipPath><clipPath id="88229a5996"><path d="M 112.5 158 L 133 158 L 133 194 L 112.5 194 Z M 112.5 158 " clip-rule="nonzero"/></clipPath><clipPath id="e17201773e"><path d="M 112.5 228 L 132 228 L 132 261 L 112.5 261 Z M 112.5 228 " clip-rule="nonzero"/></clipPath><clipPath id="8b0bb075d4"><path d="M 232 230 L 251 230 L 251 262.03125 L 232 262.03125 Z M 232 230 " clip-rule="nonzero"/></clipPath></defs><path fill="#545454" d="M 182.703125 126.3125 L 182.59375 126.113281 L 182.5625 126.058594 L 182.535156 126.007812 L 162.585938 125.703125 L 162.558594 125.703125 L 162.527344 125.699219 L 162.429688 125.859375 L 152.257812 142.875 L 152.390625 143.109375 L 152.496094 143.300781 L 159.839844 156.484375 L 160.054688 156.484375 L 152.621094 143.140625 L 152.511719 142.941406 L 152.472656 142.875 L 162.535156 126.054688 L 162.632812 125.890625 L 162.660156 125.890625 L 182.417969 126.195312 L 182.476562 126.304688 L 192.050781 143.484375 L 192.035156 143.511719 L 184.277344 156.480469 L 184.5 156.480469 L 192.144531 143.707031 L 192.261719 143.515625 L 192.273438 143.488281 Z M 152.625 143.140625 L 152.515625 142.941406 L 152.417969 143.109375 L 152.390625 143.109375 L 152.496094 143.300781 L 159.839844 156.484375 L 160.054688 156.484375 Z M 152.625 143.140625 " fill-opacity="1" fill-rule="nonzero"/><path fill="#545454" d="M 242.613281 127.707031 L 242.507812 127.511719 L 242.472656 127.449219 L 242.445312 127.402344 L 222.496094 127.097656 L 222.441406 127.09375 L 212.167969 144.261719 L 218.972656 156.480469 L 219.191406 156.480469 L 212.386719 144.265625 L 222.546875 127.285156 L 242.328125 127.589844 L 242.390625 127.703125 L 251.960938 144.875 L 251.945312 144.902344 L 245.023438 156.476562 L 245.246094 156.476562 L 252.054688 145.097656 L 252.171875 144.902344 L 252.183594 144.875 Z M 242.613281 127.707031 " fill-opacity="1" fill-rule="nonzero"/><path fill="#545454" d="M 242.257812 127.554688 L 251.832031 144.738281 L 251.816406 144.765625 L 251.699219 144.957031 L 243.566406 158.554688 L 243.296875 158.636719 L 243.296875 158.632812 L 243.34375 158.554688 L 251.59375 144.761719 L 251.609375 144.734375 L 242.035156 127.554688 L 241.976562 127.445312 L 233.160156 127.308594 L 233.160156 127.113281 L 242.089844 127.253906 L 242.117188 127.304688 L 242.148438 127.363281 L 242.257812 127.554688 " fill-opacity="1" fill-rule="nonzero"/><g clip-path="url(#9430f3c079)"><path fill="#545454" d="M 122.105469 194.207031 L 121.996094 194.011719 L 121.964844 193.957031 L 121.9375 193.910156 L 112.496094 193.761719 L 112.496094 193.953125 L 121.824219 194.097656 L 121.878906 194.207031 L 131.453125 211.386719 L 131.4375 211.414062 L 121.296875 228.371094 L 112.496094 228.230469 L 112.496094 228.425781 L 121.347656 228.5625 L 121.402344 228.566406 L 131.542969 211.613281 L 131.660156 211.417969 L 131.675781 211.390625 Z M 122.105469 194.207031 " fill-opacity="1" fill-rule="nonzero"/></g><path fill="#545454" d="M 161.757812 194.625 L 161.75 194.613281 L 161.648438 194.429688 L 161.644531 194.417969 L 152.171875 177.414062 L 152.144531 177.363281 L 152.070312 177.363281 L 151.847656 177.359375 L 132.199219 177.058594 L 132.191406 177.058594 L 132.136719 177.054688 L 122.164062 193.71875 L 121.992188 194.003906 L 121.875 194.199219 L 121.859375 194.226562 L 131.433594 211.40625 L 131.542969 211.605469 L 131.574219 211.664062 L 131.601562 211.707031 L 151.550781 212.019531 L 151.609375 212.019531 L 151.710938 211.851562 L 161.878906 194.84375 Z M 151.605469 211.664062 L 151.503906 211.828125 L 151.472656 211.828125 L 131.714844 211.527344 L 131.660156 211.417969 L 122.085938 194.238281 L 122.101562 194.210938 L 132.242188 177.253906 L 151.957031 177.558594 L 152.03125 177.558594 L 161.515625 194.582031 L 161.539062 194.625 L 161.625 194.785156 L 161.660156 194.851562 Z M 151.605469 211.664062 " fill-opacity="1" fill-rule="nonzero"/><g clip-path="url(#f06a0a3881)"><path fill="#545454" d="M 121.59375 229.042969 L 131.167969 246.226562 L 131.152344 246.253906 L 131.039062 246.445312 L 122.902344 260.042969 L 122.636719 260.121094 L 122.636719 260.117188 L 122.683594 260.042969 L 130.933594 246.25 L 130.949219 246.222656 L 121.375 229.042969 L 121.316406 228.933594 L 112.5 228.796875 L 112.5 228.601562 L 121.429688 228.742188 L 121.457031 228.792969 L 121.488281 228.847656 L 121.59375 229.042969 " fill-opacity="1" fill-rule="nonzero"/></g><path fill="#545454" d="M 161.242188 229.449219 L 161.132812 229.253906 L 151.660156 212.246094 L 151.632812 212.195312 L 131.683594 211.890625 L 131.628906 211.890625 L 121.488281 228.84375 L 121.371094 229.039062 L 121.355469 229.066406 L 130.929688 246.246094 L 131.039062 246.441406 L 131.066406 246.5 L 131.09375 246.546875 L 151.046875 246.855469 L 151.105469 246.855469 L 151.199219 246.691406 L 161.371094 229.679688 Z M 151.089844 246.5 L 150.988281 246.664062 L 150.960938 246.664062 L 131.203125 246.359375 L 131.144531 246.25 L 121.570312 229.070312 L 121.585938 229.042969 L 131.726562 212.085938 L 151.515625 212.390625 L 161 229.417969 L 161.109375 229.613281 L 161.148438 229.683594 Z M 150.964844 246.664062 L 131.207031 246.359375 L 131.148438 246.253906 L 131.035156 246.445312 L 131.0625 246.503906 L 131.089844 246.550781 L 151.042969 246.859375 L 151.070312 246.859375 Z M 150.964844 246.664062 " fill-opacity="1" fill-rule="nonzero"/><path fill="#545454" d="M 181.652344 194.78125 L 181.625 194.730469 L 181.59375 194.730469 L 181.476562 194.921875 L 181.507812 194.921875 L 181.566406 195.027344 L 181.683594 194.835938 Z M 161.542969 194.621094 L 161.628906 194.78125 L 161.71875 194.625 Z M 181.785156 195.027344 L 181.679688 194.832031 L 181.648438 194.777344 L 181.621094 194.726562 L 181.589844 194.726562 L 181.371094 194.722656 L 161.667969 194.417969 L 161.617188 194.417969 L 161.609375 194.429688 L 161.519531 194.578125 L 161.492188 194.621094 L 151.347656 211.59375 L 151.476562 211.824219 L 151.585938 212.019531 L 161.058594 229.027344 L 161.085938 229.078125 L 181.039062 229.382812 L 181.089844 229.386719 L 191.234375 212.429688 L 191.347656 212.238281 L 191.363281 212.210938 Z M 180.980469 229.1875 L 161.191406 228.882812 L 151.710938 211.855469 L 151.601562 211.660156 L 151.5625 211.59375 L 161.621094 194.777344 L 161.710938 194.621094 L 161.71875 194.609375 L 161.746094 194.609375 L 181.472656 194.914062 L 181.503906 194.914062 L 181.5625 195.019531 L 191.136719 212.203125 L 191.121094 212.230469 Z M 180.980469 229.1875 " fill-opacity="1" fill-rule="nonzero"/><path fill="#545454" d="M 212.019531 178.535156 L 211.914062 178.339844 L 211.855469 178.234375 L 211.828125 178.183594 L 211.800781 178.183594 L 211.582031 178.179688 L 191.882812 177.878906 L 191.824219 177.878906 L 191.816406 177.890625 L 191.703125 178.082031 L 181.683594 194.832031 L 181.566406 195.023438 L 181.550781 195.050781 L 191.125 212.234375 L 191.234375 212.429688 L 191.265625 212.488281 L 191.289062 212.535156 L 211.242188 212.84375 L 211.300781 212.84375 L 221.382812 195.976562 L 221.5 195.785156 L 221.566406 195.667969 Z M 211.1875 212.652344 L 191.398438 212.347656 L 191.339844 212.238281 L 181.765625 195.054688 L 181.78125 195.027344 L 191.917969 178.085938 L 191.925781 178.074219 L 211.683594 178.378906 L 211.710938 178.378906 L 211.796875 178.53125 L 221.34375 195.664062 L 221.273438 195.785156 Z M 211.1875 212.652344 " fill-opacity="1" fill-rule="nonzero"/><path fill="#545454" d="M 181.277344 229.863281 L 181.167969 229.667969 L 181.136719 229.609375 L 181.109375 229.558594 L 161.160156 229.253906 L 161.132812 229.253906 L 161.101562 229.25 L 161.003906 229.414062 L 150.832031 246.425781 L 150.964844 246.660156 L 151.074219 246.855469 L 158.414062 260.039062 L 158.632812 260.039062 L 151.195312 246.691406 L 151.089844 246.496094 L 151.050781 246.425781 L 161.109375 229.605469 L 161.207031 229.445312 L 161.238281 229.445312 L 180.996094 229.75 L 181.054688 229.855469 L 190.625 247.035156 L 190.613281 247.0625 L 182.851562 260.035156 L 183.074219 260.035156 L 190.71875 247.257812 L 190.835938 247.066406 L 190.851562 247.039062 Z M 151.195312 246.695312 L 151.089844 246.5 L 150.988281 246.664062 L 150.960938 246.664062 L 151.070312 246.859375 L 158.410156 260.042969 L 158.628906 260.042969 Z M 151.195312 246.695312 " fill-opacity="1" fill-rule="nonzero"/><path fill="#545454" d="M 241.1875 231.261719 L 241.082031 231.070312 L 241.046875 231.007812 L 241.019531 230.957031 L 221.070312 230.652344 L 221.015625 230.648438 L 210.742188 247.820312 L 217.550781 260.039062 L 217.765625 260.039062 L 210.964844 247.824219 L 221.121094 230.839844 L 240.90625 231.144531 L 240.96875 231.257812 L 250.535156 248.433594 L 250.523438 248.460938 L 243.601562 260.035156 L 243.820312 260.035156 L 250.628906 248.652344 L 250.746094 248.460938 L 250.761719 248.433594 Z M 241.1875 231.261719 " fill-opacity="1" fill-rule="nonzero"/><g clip-path="url(#979a9d95f9)"><path fill="#545454" d="M 252.324219 144.6875 L 252.269531 144.6875 L 252.230469 144.753906 L 242.019531 161.820312 L 241.996094 161.859375 L 251.707031 179.292969 L 251.71875 179.3125 L 251.734375 179.339844 L 262.46875 179.507812 L 262.46875 179.316406 L 251.847656 179.148438 L 242.222656 161.859375 L 252.378906 144.875 L 262.46875 145.035156 L 262.46875 144.84375 Z M 252.324219 144.6875 " fill-opacity="1" fill-rule="nonzero"/></g><g clip-path="url(#198cca62de)"><path fill="#545454" d="M 252.3125 144.558594 L 252.25 144.445312 L 242.683594 127.273438 L 242.691406 127.261719 L 251.363281 112.765625 L 251.144531 112.765625 L 242.589844 127.074219 L 242.472656 127.265625 L 242.46875 127.273438 L 252.035156 144.449219 L 252.144531 144.640625 L 252.175781 144.707031 L 252.203125 144.757812 L 252.238281 144.757812 L 262.476562 144.914062 L 262.476562 144.722656 Z M 252.3125 144.558594 " fill-opacity="1" fill-rule="nonzero"/></g><path fill="#545454" d="M 251.371094 213.066406 L 251.308594 212.953125 L 241.738281 195.78125 L 241.746094 195.769531 L 250.417969 181.273438 L 250.199219 181.273438 L 241.644531 195.578125 L 241.527344 195.773438 L 241.523438 195.78125 L 251.089844 212.957031 L 251.195312 213.148438 L 251.230469 213.214844 L 251.257812 213.265625 L 251.292969 213.265625 L 261.53125 213.421875 L 261.53125 213.230469 Z M 251.371094 213.066406 " fill-opacity="1" fill-rule="nonzero"/><path fill="#545454" d="M 250.984375 248.09375 L 250.921875 247.976562 L 241.351562 230.804688 L 241.359375 230.792969 L 250.03125 216.300781 L 249.8125 216.300781 L 241.257812 230.605469 L 241.140625 230.796875 L 241.136719 230.804688 L 250.703125 247.980469 L 250.8125 248.175781 L 250.847656 248.238281 L 250.871094 248.289062 L 250.90625 248.289062 L 261.144531 248.449219 L 261.144531 248.253906 Z M 250.984375 248.09375 " fill-opacity="1" fill-rule="nonzero"/><path fill="#545454" d="M 211.359375 213.09375 L 211.347656 213.070312 L 211.316406 213.019531 L 191.363281 212.714844 L 191.308594 212.714844 L 181.167969 229.671875 L 181.054688 229.863281 L 181.039062 229.890625 L 190.613281 247.070312 L 190.71875 247.265625 L 190.75 247.324219 L 190.777344 247.371094 L 210.726562 247.679688 L 210.785156 247.679688 L 221.046875 230.519531 L 221.054688 230.507812 Z M 210.679688 247.484375 L 190.890625 247.179688 L 190.832031 247.070312 L 181.257812 229.890625 L 181.273438 229.863281 L 191.414062 212.90625 L 211.203125 213.210938 L 220.832031 230.496094 Z M 210.679688 247.484375 " fill-opacity="1" fill-rule="nonzero"/><path fill="#545454" d="M 182.6875 125.746094 L 182.578125 125.550781 L 182.542969 125.488281 L 182.515625 125.445312 L 163.164062 125.140625 L 162.945312 125.140625 L 162.566406 125.132812 L 162.511719 125.132812 L 152.332031 142.152344 L 152.238281 142.308594 L 152.257812 142.34375 L 152.359375 142.527344 L 152.46875 142.722656 L 161.953125 159.746094 L 161.980469 159.796875 L 162.375 159.804688 L 162.597656 159.804688 L 181.929688 160.101562 L 181.988281 160.101562 L 192.125 143.144531 L 192.242188 142.953125 L 192.257812 142.925781 Z M 181.875 159.90625 L 162.484375 159.609375 L 162.265625 159.605469 L 162.089844 159.601562 L 152.691406 142.722656 L 152.578125 142.53125 L 152.476562 142.34375 L 152.457031 142.3125 L 152.554688 142.15625 L 162.621094 125.328125 L 162.871094 125.332031 L 163.089844 125.335938 L 182.402344 125.632812 L 182.460938 125.742188 L 192.035156 142.921875 L 192.019531 142.949219 Z M 181.875 159.90625 " fill-opacity="1" fill-rule="nonzero"/><g clip-path="url(#e4602ce7f2)"><path fill="#545454" d="M 214.875 112.765625 L 214.65625 112.765625 L 222.242188 126.382812 L 212.085938 143.363281 L 192.296875 143.058594 L 192.242188 142.949219 L 182.671875 125.773438 L 182.6875 125.746094 L 190.449219 112.765625 L 190.226562 112.765625 L 182.578125 125.550781 L 182.460938 125.742188 L 182.445312 125.769531 L 192.019531 142.949219 L 192.125 143.140625 L 192.160156 143.203125 L 192.1875 143.25 L 212.136719 143.554688 L 212.191406 143.558594 L 222.464844 126.390625 Z M 214.875 112.765625 " fill-opacity="1" fill-rule="nonzero"/></g><g clip-path="url(#781d9e62eb)"><path fill="#545454" d="M 123.40625 124.539062 L 123.300781 124.347656 L 123.265625 124.285156 L 123.238281 124.238281 L 112.496094 124.070312 L 112.496094 124.261719 L 123.128906 124.429688 L 123.183594 124.535156 L 132.753906 141.714844 L 132.738281 141.742188 L 122.597656 158.699219 L 112.5 158.542969 L 112.5 158.734375 L 122.652344 158.894531 L 122.707031 158.894531 L 132.847656 141.933594 L 132.964844 141.746094 L 132.980469 141.71875 Z M 123.40625 124.539062 " fill-opacity="1" fill-rule="nonzero"/></g><g clip-path="url(#e71d42be33)"><path fill="#545454" d="M 163.167969 125.140625 L 156.273438 112.765625 L 156.058594 112.765625 L 162.949219 125.140625 L 162.96875 125.175781 L 162.875 125.332031 L 152.808594 142.160156 L 152.5625 142.15625 L 152.339844 142.152344 L 133.023438 141.855469 L 132.96875 141.746094 L 123.394531 124.566406 L 123.410156 124.539062 L 130.453125 112.765625 L 130.230469 112.765625 L 123.308594 124.347656 L 123.191406 124.535156 L 123.175781 124.5625 L 132.746094 141.742188 L 132.855469 141.933594 L 132.890625 141.996094 L 132.917969 142.046875 L 152.269531 142.34375 L 152.488281 142.34375 L 152.867188 142.351562 L 152.921875 142.351562 L 163.101562 125.335938 L 163.195312 125.179688 Z M 163.167969 125.140625 " fill-opacity="1" fill-rule="nonzero"/></g><g clip-path="url(#88229a5996)"><path fill="#545454" d="M 122.933594 159.371094 L 122.828125 159.179688 L 122.796875 159.117188 L 122.769531 159.070312 L 112.496094 158.910156 L 112.496094 159.101562 L 122.65625 159.261719 L 122.714844 159.367188 L 132.285156 176.550781 L 132.269531 176.578125 L 122.128906 193.535156 L 112.5 193.382812 L 112.5 193.578125 L 122.167969 193.726562 L 122.234375 193.726562 L 132.203125 177.0625 L 132.378906 176.773438 L 132.496094 176.578125 L 132.511719 176.550781 Z M 122.933594 159.371094 " fill-opacity="1" fill-rule="nonzero"/></g><path fill="#545454" d="M 151.824219 176.984375 L 132.550781 176.6875 L 132.492188 176.578125 L 132.375 176.773438 L 132.40625 176.828125 L 132.433594 176.878906 L 151.75 177.171875 L 151.730469 177.140625 Z M 151.824219 176.984375 L 132.550781 176.6875 L 132.492188 176.578125 L 132.375 176.773438 L 132.40625 176.828125 L 132.433594 176.878906 L 151.75 177.171875 L 151.730469 177.140625 Z M 151.824219 176.984375 L 132.550781 176.6875 L 132.492188 176.578125 L 132.375 176.773438 L 132.40625 176.828125 L 132.433594 176.878906 L 151.75 177.171875 L 151.730469 177.140625 Z M 162.695312 159.984375 L 162.597656 159.796875 L 162.484375 159.605469 L 153.003906 142.578125 L 152.976562 142.53125 L 152.578125 142.523438 L 152.359375 142.519531 L 133.023438 142.222656 L 132.96875 142.222656 L 122.832031 159.183594 L 122.71875 159.371094 L 122.703125 159.398438 L 132.273438 176.582031 L 132.378906 176.777344 L 132.410156 176.832031 L 132.4375 176.882812 L 151.753906 177.175781 L 151.972656 177.179688 L 152.394531 177.1875 L 152.445312 177.191406 L 162.625 160.175781 L 162.71875 160.015625 Z M 152.335938 176.992188 L 152.046875 176.988281 L 151.824219 176.984375 L 132.550781 176.6875 L 132.492188 176.578125 L 122.917969 159.398438 L 122.933594 159.371094 L 133.074219 142.417969 L 152.46875 142.714844 L 152.691406 142.71875 L 152.863281 142.722656 L 162.265625 159.601562 L 162.375 159.796875 L 162.476562 159.980469 L 162.496094 160.015625 L 162.398438 160.171875 Z M 151.824219 176.984375 L 132.550781 176.6875 L 132.492188 176.578125 L 132.375 176.773438 L 132.40625 176.828125 L 132.433594 176.878906 L 151.75 177.171875 L 151.730469 177.140625 Z M 151.824219 176.984375 L 132.550781 176.6875 L 132.492188 176.578125 L 132.375 176.773438 L 132.40625 176.828125 L 132.433594 176.878906 L 151.75 177.171875 L 151.730469 177.140625 Z M 151.824219 176.984375 " fill-opacity="1" fill-rule="nonzero"/><path fill="#545454" d="M 151.96875 177.175781 L 151.949219 177.144531 L 152.046875 176.988281 L 151.824219 176.984375 L 151.730469 177.140625 L 151.75 177.171875 L 151.851562 177.367188 L 152.074219 177.371094 Z M 151.96875 177.175781 L 151.949219 177.144531 L 152.046875 176.988281 L 151.824219 176.984375 L 151.730469 177.140625 L 151.75 177.171875 L 151.851562 177.367188 L 152.074219 177.371094 Z M 151.96875 177.175781 L 151.949219 177.144531 L 152.046875 176.988281 L 151.824219 176.984375 L 151.730469 177.140625 L 151.75 177.171875 L 151.851562 177.367188 L 152.074219 177.371094 Z M 182.171875 160.582031 L 182.0625 160.382812 L 182.03125 160.328125 L 182.003906 160.277344 L 162.691406 159.980469 L 162.472656 159.976562 L 162.050781 159.96875 L 162 159.96875 L 151.824219 176.984375 L 151.730469 177.140625 L 151.75 177.171875 L 151.851562 177.367188 L 151.964844 177.5625 L 161.441406 194.578125 L 161.46875 194.628906 L 161.546875 194.628906 L 161.722656 194.632812 L 161.765625 194.632812 L 181.421875 194.933594 L 181.476562 194.9375 L 181.484375 194.925781 L 181.601562 194.734375 L 191.621094 177.980469 L 191.734375 177.789062 L 191.75 177.765625 Z M 181.371094 194.726562 L 181.363281 194.738281 L 161.648438 194.433594 L 161.578125 194.433594 L 152.074219 177.367188 L 151.96875 177.171875 L 151.949219 177.140625 L 152.046875 176.984375 L 162.105469 160.160156 L 162.394531 160.164062 L 162.617188 160.167969 L 181.890625 160.460938 L 181.949219 160.570312 L 191.519531 177.753906 L 191.503906 177.777344 Z M 151.96875 177.175781 L 151.949219 177.144531 L 152.046875 176.988281 L 151.824219 176.984375 L 151.730469 177.140625 L 151.75 177.171875 L 151.851562 177.367188 L 152.074219 177.371094 Z M 151.96875 177.175781 L 151.949219 177.144531 L 152.046875 176.988281 L 151.824219 176.984375 L 151.730469 177.140625 L 151.75 177.171875 L 151.851562 177.367188 L 152.074219 177.371094 Z M 151.96875 177.175781 " fill-opacity="1" fill-rule="nonzero"/><path fill="#545454" d="M 212.253906 143.808594 L 212.242188 143.789062 L 212.214844 143.738281 L 192.265625 143.433594 L 192.207031 143.429688 L 182.066406 160.386719 L 181.953125 160.578125 L 181.9375 160.605469 L 191.507812 177.785156 L 191.617188 177.980469 L 191.648438 178.039062 L 191.675781 178.089844 L 191.707031 178.089844 L 191.925781 178.09375 L 211.628906 178.398438 L 211.683594 178.398438 L 211.691406 178.386719 L 211.804688 178.191406 L 221.945312 161.234375 L 221.953125 161.222656 Z M 211.578125 178.183594 L 211.570312 178.195312 L 191.8125 177.894531 L 191.78125 177.894531 L 191.722656 177.789062 L 182.152344 160.605469 L 182.167969 160.582031 L 192.308594 143.621094 L 212.09375 143.925781 L 221.722656 161.214844 Z M 211.578125 178.183594 " fill-opacity="1" fill-rule="nonzero"/><path fill="#545454" d="M 241.714844 196.410156 L 241.648438 196.289062 L 241.625 196.238281 L 241.597656 196.238281 L 241.375 196.234375 L 221.671875 195.933594 L 221.617188 195.933594 L 221.609375 195.945312 L 221.5 196.136719 L 211.355469 213.097656 L 211.347656 213.109375 L 221.039062 230.519531 L 221.054688 230.542969 L 221.082031 230.589844 L 241.03125 230.898438 L 241.085938 230.898438 L 251.234375 213.929688 L 251.351562 213.734375 L 251.359375 213.722656 Z M 240.984375 230.703125 L 221.195312 230.398438 L 211.570312 213.105469 L 221.71875 196.136719 L 221.726562 196.125 L 241.484375 196.429688 L 241.515625 196.429688 L 251.140625 213.714844 L 251.117188 213.75 Z M 240.984375 230.703125 " fill-opacity="1" fill-rule="nonzero"/><path fill="#545454" d="M 242.691406 127.261719 L 242.585938 127.070312 L 242.550781 127.003906 L 242.523438 126.953125 L 222.570312 126.644531 L 222.515625 126.644531 L 212.25 143.804688 L 212.242188 143.816406 L 221.9375 161.230469 L 221.949219 161.25 L 221.976562 161.300781 L 241.929688 161.605469 L 241.984375 161.609375 L 252.136719 144.632812 L 252.25 144.441406 L 252.253906 144.433594 Z M 241.882812 161.414062 L 222.09375 161.109375 L 212.464844 143.824219 L 222.621094 126.839844 L 242.410156 127.144531 L 242.472656 127.261719 L 252.042969 144.433594 L 252.035156 144.445312 Z M 241.882812 161.414062 " fill-opacity="1" fill-rule="nonzero"/><path fill="#545454" d="M 242.035156 161.839844 L 242.023438 161.820312 L 242.007812 161.789062 L 222.058594 161.484375 L 222.003906 161.480469 L 211.917969 178.34375 L 211.800781 178.535156 L 211.730469 178.65625 L 221.277344 195.789062 L 221.382812 195.980469 L 221.445312 196.089844 L 221.472656 196.140625 L 221.507812 196.140625 L 221.722656 196.144531 L 241.421875 196.449219 L 241.480469 196.449219 L 241.488281 196.4375 L 241.605469 196.242188 L 251.726562 179.3125 L 251.75 179.273438 Z M 241.375 196.234375 L 241.367188 196.246094 L 221.609375 195.945312 L 221.578125 195.945312 L 221.492188 195.785156 L 211.949219 178.65625 L 212.019531 178.535156 L 222.105469 161.671875 L 241.894531 161.980469 L 251.519531 179.265625 Z M 241.375 196.234375 " fill-opacity="1" fill-rule="nonzero"/><g clip-path="url(#e17201773e)"><path fill="#545454" d="M 122.796875 260.214844 L 122.472656 260.015625 L 130.8125 246.4375 L 121.476562 229.226562 L 112.492188 228.796875 L 112.507812 228.414062 L 121.710938 228.851562 L 131.257812 246.449219 Z M 122.796875 260.214844 " fill-opacity="1" fill-rule="nonzero"/></g><g clip-path="url(#8b0bb075d4)"><path fill="#545454" d="M 241.34375 231.109375 L 250.917969 248.292969 L 250.902344 248.320312 L 250.789062 248.515625 L 242.652344 262.109375 L 242.386719 262.191406 L 242.386719 262.1875 L 242.433594 262.109375 L 250.683594 248.316406 L 250.699219 248.289062 L 241.125 231.109375 L 241.066406 231.003906 L 232.25 230.863281 L 232.25 230.671875 L 241.179688 230.808594 L 241.207031 230.859375 L 241.238281 230.917969 L 241.34375 231.109375 " fill-opacity="1" fill-rule="nonzero"/></g></svg>